# xmcd
#
# Track frame offsets:
#	150
#	15100
#	30852
#	48917
#	70705
#	90160
#	105457
#	126272
#	145845
#	170845
#	187534
#
# Disc length: 2802 seconds
#
# Revision: 2
# Processed by: cddbd v1.5.2PL0 Copyright (c) Steve Scherf et al.
# Submitted via: EasyCDDAExtractor 10.0.6.1
#
DISCID=740af00b
DTITLE=The Doobie Brothers -  Best Of The Doobies (DCC GZS-1121)
DYEAR=1976
DGENRE=Southern Rock
TTITLE0=China Grove
TTITLE1=Long Train Runnin'
TTITLE2=Takin' It To The Streets
TTITLE3=Listen To The Music
TTITLE4=Black Water
TTITLE5=Rockin' Down the Highway
TTITLE6=Jesus Is Just Alright
TTITLE7=It Keeps You Runnin'
TTITLE8=South City Midnight Lady
TTITLE9=Take Me in Your Arms
TTITLE10=Without You
EXTD=Gold Album YEAR: 1976
EXTT0=
EXTT1=
EXTT2=
EXTT3=
EXTT4=
EXTT5=
EXTT6=
EXTT7=
EXTT8=
EXTT9=
EXTT10=
PLAYORDER=
